<svg xmlns="http://www.w3.org/2000/svg" xmlns:xlink="http://www.w3.org/1999/xlink" width="800" zoomAndPan="magnify" viewBox="0 0 600 672.749997" height="897" preserveAspectRatio="xMidYMid meet" version="1.0"><defs><clipPath id="id1"><path d="M 22 115 L 599.886719 115 L 599.886719 654 L 22 654 Z M 22 115 " clip-rule="nonzero"/></clipPath><clipPath id="id2"><path d="M 0.113281 138 L 576 138 L 576 672.5 L 0.113281 672.5 Z M 0.113281 138 " clip-rule="nonzero"/></clipPath></defs><g clip-path="url(#id1)"><path stroke-linecap="butt" transform="matrix(1.265694, 0, 0, 1.265694, 36.242192, 183.862726)" fill="none" stroke-linejoin="miter" d="M 349.632183 352.999726 L 331.225779 122.558577 L 328.923435 122.558577 L 249.310488 350.700469 L 196.504723 350.700469 L 116.88869 122.558577 L 114.472155 122.558577 L 96.179942 352.999726 L 7.592176 352.999726 L 42.454474 -35.7507 L 136.677736 -35.7507 L 222.848967 188.480911 L 309.137476 -35.7507 L 403.360738 -35.7507 L 438.21995 352.999726 Z M 349.632183 352.999726 " stroke="#215a79" stroke-width="3.23983" stroke-opacity="1" stroke-miterlimit="4"/></g><g clip-path="url(#id2)"><path stroke-linecap="butt" transform="matrix(1.265694, 0, 0, 1.265694, -2.137721, 206.556969)" fill="none" stroke-linejoin="miter" d="M 349.632979 353.000571 L 331.226574 122.556336 L 328.924231 122.556336 L 249.311284 350.698228 L 196.502433 350.698228 L 116.889486 122.556336 L 114.472951 122.556336 L 96.180738 353.000571 L 7.592971 353.000571 L 42.452183 -35.749855 L 136.678531 -35.749855 L 222.849763 188.47867 L 309.135185 -35.749855 L 403.361533 -35.749855 L 438.220745 353.000571 Z M 349.632979 353.000571 " stroke="#215a79" stroke-width="3.23983" stroke-opacity="1" stroke-miterlimit="4"/></g></svg>